<?xml version="1.0" encoding="UTF-8"?>
<svg id="Layer_2" data-name="Layer 2" xmlns="http://www.w3.org/2000/svg" viewBox="0 0 643.6 189.62">
  <defs>
    <style>.cls-1 { fill: #ffffff; stroke-width: 0px; }</style>
  </defs>
  <g id="Layer_1-2" data-name="Layer 1">
    <g>
      <g>
        <path class="cls-1" d="M12.47,189.62H0v-85.56h49.39l8.52,8.4v35.8l-12.84,12.59H12.47v28.77ZM12.47,149.74h27.16l5.56-5.56v-28.64H12.47v34.2Z"/>
        <path class="cls-1" d="M198.03,189.62h-42.59l-8.64-8.64v-68.52l8.64-8.4h42.59l8.52,8.4v19.51h-12.72v-16.42h-34.45v62.47h34.45v-16.3h12.72v19.26l-8.52,8.64Z"/>
        <path class="cls-1" d="M236.8,189.62h-12.47v-85.56h12.47v36.79h11.61l21.98-23.09v-13.7h12.72v17.41l-23.7,24.69,24.08,25.19v18.27h-12.72v-14.69l-21.61-22.84h-12.35v37.53Z"/>
        <path class="cls-1" d="M429.52,189.62h-42.96l-8.64-8.64v-68.52l8.64-8.4h42.96l8.52,8.4v18.15h-12.72v-15.06h-34.82v62.47h35.43v-21.48h-18.15v-10.12h30.25v34.57l-8.52,8.64Z"/>
        <path class="cls-1" d="M457.42,189.62v-85.56h12.47v85.56h-12.47Z"/>
        <path class="cls-1" d="M503.72,189.62h-11.85v-85.56h23.58l30.87,72.6h5.43c-.17-1.89-.31-4.09-.43-6.61-.12-2.51-.19-4.75-.19-6.73v-59.26h11.85v85.56h-23.7l-30.87-72.72h-5.31c.08,1.89.2,4.1.37,6.61.16,2.51.25,4.75.25,6.73v59.39Z"/>
        <path class="cls-1" d="M635.08,189.62h-42.96l-8.64-8.64v-68.52l8.64-8.4h42.96l8.52,8.4v18.15h-12.72v-15.06h-34.82v62.47h35.43v-21.48h-18.15v-10.12h30.25v34.57l-8.52,8.64Z"/>
        <path class="cls-1" d="M99.51,115.42l-20.86,68.52v5.68h-12.72v-6.92l25.31-78.64h16.67l25.19,78.52v7.04h-12.72v-5.68l-20.86-68.52Z"/>
        <path class="cls-1" d="M330.63,115.42l-20.86,68.52v5.68h-12.72v-6.92l25.31-78.64h16.67l25.19,78.52v7.04h-12.72v-5.68l-20.86-68.52Z"/>
      </g>
      <g>
        <path class="cls-1" d="M57.79,92.76H10.81L0,81.95V10.68L10.81,0h46.98l10.68,10.68v19.09h-17.49v-14.01H17.35v61.26h34.44v-19.09h-17.48v-13.35h34.17v37.37l-10.68,10.81Z"/>
        <path class="cls-1" d="M140.15,0h17.35v81.95l-10.81,10.81h-48.18l-10.68-10.81V0h17.35v77.01h34.97V0Z"/>
        <path class="cls-1" d="M280.82,92.76h-17.35V0h54.46l10.81,10.68v33.9l-9.08,9.08,9.48,9.48v29.63h-17.35v-26.43l-5.34-5.34h-25.63v31.77ZM311.39,41.38V14.42h-30.57v32.17h25.36l5.21-5.21Z"/>
        <path class="cls-1" d="M402.82,92.76h-53.26V0h53.26l14.82,14.82v63.13l-14.82,14.82ZM366.91,15.75v61.26h28.16l5.21-5.21V20.96l-5.21-5.21h-28.16Z"/>
        <path class="cls-1" d="M438.59,92.76V0h17.35v92.76h-17.35Z"/>
        <path class="cls-1" d="M509.19,14.82l-20.42,71.62v6.32h-17.35v-8.19L497.58,0h23.49l26.16,84.44v8.33h-17.35v-6.32l-20.69-71.62Z"/>
        <path class="cls-1" d="M578.73,92.76h-16.02V0h29.5l31.23,74.75h4.94c-.18-2.4-.36-5.09-.53-8.08-.18-2.98-.27-5.63-.27-7.94V0h16.02v92.76h-29.5l-31.23-74.88h-4.94c.18,2.4.35,5.12.53,8.14.18,3.03.27,5.7.27,8.01v58.73Z"/>
        <path class="cls-1" d="M209.95,14.82l-20.42,71.62v6.32h-17.35v-8.19L198.34,0h23.49l26.16,84.44v8.33h-17.35v-6.32l-20.69-71.62Z"/>
      </g>
    </g>
  </g>
</svg>
